<mxfile host="app.diagrams.net" agent="Mozilla/5.0 (Windows NT 10.0; Win64; x64) AppleWebKit/537.36 (KHTML, like Gecko) Chrome/129.0.0.0 Safari/537.36 Edg/129.0.0.0" version="24.7.17">
  <diagram name="Page-1" id="JdJNeL035dL0oQE3YnYG">
    <mxGraphModel dx="815" dy="451" grid="1" gridSize="10" guides="1" tooltips="1" connect="1" arrows="1" fold="1" page="1" pageScale="1" pageWidth="827" pageHeight="1169" math="0" shadow="0">
      <root>
        <mxCell id="0" />
        <mxCell id="1" parent="0" />
        <mxCell id="jvVMpGYpSncDv33kW9gz-7" style="edgeStyle=orthogonalEdgeStyle;rounded=0;orthogonalLoop=1;jettySize=auto;html=1;entryX=0;entryY=0.5;entryDx=0;entryDy=0;" parent="1" source="jvVMpGYpSncDv33kW9gz-1" target="jvVMpGYpSncDv33kW9gz-2" edge="1">
          <mxGeometry relative="1" as="geometry">
            <mxPoint x="440" y="150" as="targetPoint" />
            <Array as="points">
              <mxPoint x="340" y="130" />
              <mxPoint x="340" y="130" />
            </Array>
          </mxGeometry>
        </mxCell>
        <mxCell id="jvVMpGYpSncDv33kW9gz-10" value="mv; cp; rsync" style="edgeLabel;html=1;align=center;verticalAlign=middle;resizable=0;points=[];" parent="jvVMpGYpSncDv33kW9gz-7" vertex="1" connectable="0">
          <mxGeometry x="-0.2676" y="1" relative="1" as="geometry">
            <mxPoint x="7" y="1" as="offset" />
          </mxGeometry>
        </mxCell>
        <mxCell id="jvVMpGYpSncDv33kW9gz-1" value="Raw reads at GeneCore&lt;br&gt;(fastq)" style="rounded=0;whiteSpace=wrap;html=1;" parent="1" vertex="1">
          <mxGeometry x="90" y="100" width="120" height="60" as="geometry" />
        </mxCell>
        <mxCell id="jvVMpGYpSncDv33kW9gz-8" style="edgeStyle=orthogonalEdgeStyle;rounded=0;orthogonalLoop=1;jettySize=auto;html=1;" parent="1" source="jvVMpGYpSncDv33kW9gz-2" target="jvVMpGYpSncDv33kW9gz-4" edge="1">
          <mxGeometry relative="1" as="geometry">
            <Array as="points">
              <mxPoint x="420" y="150" />
              <mxPoint x="420" y="330" />
            </Array>
          </mxGeometry>
        </mxCell>
        <mxCell id="jvVMpGYpSncDv33kW9gz-11" value="&lt;font color=&quot;#ea6b66&quot;&gt;fastp;&lt;/font&gt; BBduk; Cutadapt" style="edgeLabel;html=1;align=center;verticalAlign=middle;resizable=0;points=[];" parent="jvVMpGYpSncDv33kW9gz-8" vertex="1" connectable="0">
          <mxGeometry x="0.0086" y="-2" relative="1" as="geometry">
            <mxPoint as="offset" />
          </mxGeometry>
        </mxCell>
        <mxCell id="jvVMpGYpSncDv33kW9gz-2" value="Raw reads in $SCRATCH&lt;br&gt;(fastq)" style="rounded=0;whiteSpace=wrap;html=1;" parent="1" vertex="1">
          <mxGeometry x="360" y="100" width="120" height="60" as="geometry" />
        </mxCell>
        <mxCell id="jvVMpGYpSncDv33kW9gz-9" style="edgeStyle=orthogonalEdgeStyle;rounded=0;orthogonalLoop=1;jettySize=auto;html=1;" parent="1" source="jvVMpGYpSncDv33kW9gz-4" target="jvVMpGYpSncDv33kW9gz-5" edge="1">
          <mxGeometry relative="1" as="geometry" />
        </mxCell>
        <mxCell id="jvVMpGYpSncDv33kW9gz-12" value="Text" style="edgeLabel;html=1;align=center;verticalAlign=middle;resizable=0;points=[];" parent="jvVMpGYpSncDv33kW9gz-9" vertex="1" connectable="0">
          <mxGeometry x="-0.0819" y="2" relative="1" as="geometry">
            <mxPoint as="offset" />
          </mxGeometry>
        </mxCell>
        <mxCell id="jvVMpGYpSncDv33kW9gz-13" value="&lt;font color=&quot;#ea6b66&quot;&gt;HISAT2&lt;/font&gt;; STAR; BBMAP" style="edgeLabel;html=1;align=center;verticalAlign=middle;resizable=0;points=[];" parent="jvVMpGYpSncDv33kW9gz-9" vertex="1" connectable="0">
          <mxGeometry x="-0.0724" y="4" relative="1" as="geometry">
            <mxPoint y="-4" as="offset" />
          </mxGeometry>
        </mxCell>
        <mxCell id="jvVMpGYpSncDv33kW9gz-4" value="Clean reads&lt;br&gt;(fastq)" style="rounded=0;whiteSpace=wrap;html=1;" parent="1" vertex="1">
          <mxGeometry x="360" y="200" width="120" height="60" as="geometry" />
        </mxCell>
        <mxCell id="jvVMpGYpSncDv33kW9gz-14" style="edgeStyle=orthogonalEdgeStyle;rounded=0;orthogonalLoop=1;jettySize=auto;html=1;" parent="1" source="jvVMpGYpSncDv33kW9gz-5" target="jvVMpGYpSncDv33kW9gz-6" edge="1">
          <mxGeometry relative="1" as="geometry" />
        </mxCell>
        <mxCell id="jvVMpGYpSncDv33kW9gz-15" value="&lt;font color=&quot;#ea6b66&quot;&gt;featureCounts&lt;/font&gt;; htseq" style="edgeLabel;html=1;align=center;verticalAlign=middle;resizable=0;points=[];" parent="jvVMpGYpSncDv33kW9gz-14" vertex="1" connectable="0">
          <mxGeometry x="-0.3583" relative="1" as="geometry">
            <mxPoint y="9" as="offset" />
          </mxGeometry>
        </mxCell>
        <mxCell id="jvVMpGYpSncDv33kW9gz-5" value="Alligned reads&lt;br&gt;(bam)" style="rounded=0;whiteSpace=wrap;html=1;" parent="1" vertex="1">
          <mxGeometry x="90" y="200" width="120" height="60" as="geometry" />
        </mxCell>
        <mxCell id="6H_KMXZ-DVbh7HPaQE4K-2" style="edgeStyle=orthogonalEdgeStyle;rounded=0;orthogonalLoop=1;jettySize=auto;html=1;" edge="1" parent="1" source="jvVMpGYpSncDv33kW9gz-6" target="6H_KMXZ-DVbh7HPaQE4K-1">
          <mxGeometry relative="1" as="geometry" />
        </mxCell>
        <mxCell id="6H_KMXZ-DVbh7HPaQE4K-3" value="limma; edgeR; DESeq2" style="edgeLabel;html=1;align=center;verticalAlign=middle;resizable=0;points=[];" vertex="1" connectable="0" parent="6H_KMXZ-DVbh7HPaQE4K-2">
          <mxGeometry x="-0.1219" y="2" relative="1" as="geometry">
            <mxPoint x="5" as="offset" />
          </mxGeometry>
        </mxCell>
        <mxCell id="6H_KMXZ-DVbh7HPaQE4K-11" style="edgeStyle=orthogonalEdgeStyle;rounded=0;orthogonalLoop=1;jettySize=auto;html=1;entryX=0.5;entryY=0;entryDx=0;entryDy=0;" edge="1" parent="1" source="jvVMpGYpSncDv33kW9gz-6" target="6H_KMXZ-DVbh7HPaQE4K-5">
          <mxGeometry relative="1" as="geometry" />
        </mxCell>
        <mxCell id="6H_KMXZ-DVbh7HPaQE4K-12" style="edgeStyle=orthogonalEdgeStyle;rounded=0;orthogonalLoop=1;jettySize=auto;html=1;" edge="1" parent="1" source="jvVMpGYpSncDv33kW9gz-6" target="6H_KMXZ-DVbh7HPaQE4K-6">
          <mxGeometry relative="1" as="geometry" />
        </mxCell>
        <mxCell id="6H_KMXZ-DVbh7HPaQE4K-18" value="R" style="edgeLabel;html=1;align=center;verticalAlign=middle;resizable=0;points=[];" vertex="1" connectable="0" parent="6H_KMXZ-DVbh7HPaQE4K-12">
          <mxGeometry x="-0.7794" y="-2" relative="1" as="geometry">
            <mxPoint as="offset" />
          </mxGeometry>
        </mxCell>
        <mxCell id="jvVMpGYpSncDv33kW9gz-6" value="Count matrix&lt;br&gt;(tsv)" style="rounded=0;whiteSpace=wrap;html=1;" parent="1" vertex="1">
          <mxGeometry x="90" y="310" width="120" height="60" as="geometry" />
        </mxCell>
        <mxCell id="6H_KMXZ-DVbh7HPaQE4K-15" style="edgeStyle=orthogonalEdgeStyle;rounded=0;orthogonalLoop=1;jettySize=auto;html=1;entryX=0.5;entryY=0;entryDx=0;entryDy=0;" edge="1" parent="1" source="6H_KMXZ-DVbh7HPaQE4K-1" target="6H_KMXZ-DVbh7HPaQE4K-13">
          <mxGeometry relative="1" as="geometry" />
        </mxCell>
        <mxCell id="6H_KMXZ-DVbh7HPaQE4K-17" value="clusterProfiler; topGO; GSEA" style="edgeLabel;html=1;align=center;verticalAlign=middle;resizable=0;points=[];" vertex="1" connectable="0" parent="6H_KMXZ-DVbh7HPaQE4K-15">
          <mxGeometry x="-0.762" y="-1" relative="1" as="geometry">
            <mxPoint as="offset" />
          </mxGeometry>
        </mxCell>
        <mxCell id="6H_KMXZ-DVbh7HPaQE4K-16" style="edgeStyle=orthogonalEdgeStyle;rounded=0;orthogonalLoop=1;jettySize=auto;html=1;" edge="1" parent="1" source="6H_KMXZ-DVbh7HPaQE4K-1" target="6H_KMXZ-DVbh7HPaQE4K-14">
          <mxGeometry relative="1" as="geometry" />
        </mxCell>
        <mxCell id="6H_KMXZ-DVbh7HPaQE4K-1" value="DE genes" style="rounded=0;whiteSpace=wrap;html=1;" vertex="1" parent="1">
          <mxGeometry x="360" y="310" width="120" height="60" as="geometry" />
        </mxCell>
        <mxCell id="6H_KMXZ-DVbh7HPaQE4K-5" value="Sample clustering" style="rounded=0;whiteSpace=wrap;html=1;" vertex="1" parent="1">
          <mxGeometry x="40" y="431" width="90" height="50" as="geometry" />
        </mxCell>
        <mxCell id="6H_KMXZ-DVbh7HPaQE4K-6" value="PCA" style="rounded=0;whiteSpace=wrap;html=1;" vertex="1" parent="1">
          <mxGeometry x="180" y="431" width="90" height="50" as="geometry" />
        </mxCell>
        <mxCell id="6H_KMXZ-DVbh7HPaQE4K-13" value="GO term enrichment" style="rounded=0;whiteSpace=wrap;html=1;" vertex="1" parent="1">
          <mxGeometry x="310" y="431" width="90" height="50" as="geometry" />
        </mxCell>
        <mxCell id="6H_KMXZ-DVbh7HPaQE4K-14" value="KEGG term enrichment" style="rounded=0;whiteSpace=wrap;html=1;" vertex="1" parent="1">
          <mxGeometry x="440" y="431" width="90" height="50" as="geometry" />
        </mxCell>
      </root>
    </mxGraphModel>
  </diagram>
</mxfile>
